<svg xmlns="http://www.w3.org/2000/svg" viewBox="0 0 500 500"><g id="freepik--Arrow--inject-242"><g id="freepik--arrow--inject-242"><polygon points="338.94 48.07 334.65 45.57 297.39 58.97 305.62 66.67 200.22 179.22 178.26 158.49 173.96 155.99 91.69 243.84 101.56 253.08 105.86 255.59 177.48 179.11 197.94 197.89 204.38 201.65 318.96 79.3 323.71 83.61 328.01 86.12 338.94 48.07" style="fill:#F65308"></polygon><polygon points="338.94 48.07 334.65 45.57 297.39 58.97 305.62 66.67 200.22 179.22 178.26 158.49 173.96 155.99 91.69 243.84 101.56 253.08 105.86 255.59 177.48 179.11 197.94 197.89 204.38 201.65 318.96 79.3 323.71 83.61 328.01 86.12 338.94 48.07" style="fill:#fff;opacity:0.25"></polygon><polygon points="338.94 48.07 328.01 86.12 319.78 78.42 204.38 201.65 178.88 177.61 105.86 255.59 95.98 246.34 178.26 158.49 203.75 182.53 309.91 69.17 301.69 61.47 338.94 48.07" style="fill:#F65308"></polygon><polygon points="178.88 177.61 177.48 179.11 197.94 197.89 204.38 201.65 178.88 177.61" style="fill:#F65308"></polygon><polygon points="178.88 177.61 177.48 179.11 197.94 197.89 204.38 201.65 178.88 177.61" style="opacity:0.2"></polygon><polygon points="305.62 66.67 309.91 69.17 301.69 61.47 297.39 58.97 305.62 66.67" style="fill:#F65308"></polygon><polygon points="305.62 66.67 309.91 69.17 301.69 61.47 297.39 58.97 305.62 66.67" style="opacity:0.2"></polygon><polygon points="318.96 79.3 319.78 78.42 328.01 86.12 323.71 83.61 318.96 79.3" style="fill:#F65308"></polygon><polygon points="318.96 79.3 319.78 78.42 328.01 86.12 323.71 83.61 318.96 79.3" style="opacity:0.2"></polygon><polygon points="91.69 243.84 95.98 246.34 105.86 255.59 101.56 253.08 91.69 243.84" style="fill:#F65308"></polygon><polygon points="91.69 243.84 95.98 246.34 105.86 255.59 101.56 253.08 91.69 243.84" style="opacity:0.2"></polygon><polygon points="123.1 217.39 178.26 160.31 203.75 182.53 178.26 158.49 123.1 217.39" style="fill:#fff;opacity:0.5"></polygon><polygon points="252.39 130.6 311.16 69.17 303.24 61.85 338.94 48.07 301.69 61.47 309.91 69.17 252.39 130.6" style="fill:#fff;opacity:0.5"></polygon></g></g><g id="freepik--bar-chart--inject-242"><g id="freepik--bar-graph--inject-242"><g style="opacity:0.30000000000000004"><path d="M340.94,320.78a.63.63,0,0,1-.33-.09L297.91,296a.68.68,0,0,1-.33-.57.66.66,0,0,1,.33-.57l53.37-30.81a.65.65,0,0,1,.66,0l42.7,24.65a.65.65,0,0,1,.32.57.67.67,0,0,1-.32.57l-53.37,30.81A.68.68,0,0,1,340.94,320.78Zm-41.38-25.31,41.38,23.89L393,289.31l-41.38-23.89Z" style="fill:#F65308"></path></g><polygon points="340.94 313.96 340.93 149.09 308.91 130.6 308.92 295.47 340.94 313.96" style="fill:#F65308"></polygon><polygon points="340.94 313.96 340.93 149.09 308.91 130.6 308.92 295.47 340.94 313.96" style="opacity:0.2"></polygon><polygon points="340.94 313.96 383.63 289.31 383.64 124.44 340.93 149.09 340.94 313.96" style="fill:#F65308"></polygon><polygon points="383.64 124.44 351.62 105.95 308.91 130.6 340.93 149.09 383.64 124.44" style="fill:#F65308"></polygon><polygon points="383.64 124.44 351.62 105.95 308.91 130.6 340.93 149.09 383.64 124.44" style="fill:#fff;opacity:0.25"></polygon><path d="M383.64,124.44l-43.13,23.78-14-7.82-17.59-9.8,17.28,10.34,14.17,8.46c-.34,4.8-.43,87.56-.37,92.37s.31,67.28.95,72.19c.64-4.91.86-67.28.93-72.19.07-4.65,0-87.26-.34-91.91Z" style="fill:#fff;opacity:0.30000000000000004"></path><g style="opacity:0.30000000000000004"><path d="M260.88,367a.68.68,0,0,1-.33-.09l-42.69-24.65a.68.68,0,0,1-.33-.57.66.66,0,0,1,.33-.57l53.37-30.81a.65.65,0,0,1,.66,0L314.58,335a.66.66,0,0,1,.33.57.68.68,0,0,1-.33.57l-53.37,30.81A.63.63,0,0,1,260.88,367ZM219.5,341.69l41.38,23.89,52.06-30.05-41.38-23.89Z" style="fill:#F65308"></path></g><polygon points="260.88 360.18 260.88 227.75 228.86 209.26 228.86 341.69 260.88 360.18" style="fill:#F65308"></polygon><polygon points="260.88 360.18 260.88 227.75 228.86 209.26 228.86 341.69 260.88 360.18" style="fill:#fff;opacity:0.1"></polygon><polygon points="260.88 360.18 303.58 335.53 303.58 203.1 260.88 227.75 260.88 360.18" style="fill:#F65308"></polygon><polygon points="260.88 360.18 303.58 335.53 303.58 203.1 260.88 227.75 260.88 360.18" style="fill:#fff;opacity:0.30000000000000004"></polygon><polygon points="303.58 203.1 271.56 184.62 228.86 209.26 260.88 227.75 303.58 203.1" style="fill:#F65308"></polygon><polygon points="303.58 203.1 271.56 184.62 228.86 209.26 260.88 227.75 303.58 203.1" style="fill:#fff;opacity:0.55"></polygon><path d="M261.45,228.08l42.13-25-42.7,24c-4.65-2.64-9.76-5.47-14.43-8.07l-17.59-9.79,17.28,10.33c4.72,2.83,9.44,5.67,14.18,8.46-.15,5,.24,127,.56,132.12C261.21,355.09,261.59,232.9,261.45,228.08Z" style="fill:#fff;opacity:0.30000000000000004"></path><g style="opacity:0.30000000000000004"><path d="M180.83,413.22a.66.66,0,0,1-.33-.09l-42.7-24.65a.67.67,0,0,1-.32-.57.65.65,0,0,1,.32-.57l53.37-30.81a.65.65,0,0,1,.66,0l42.7,24.65a.65.65,0,0,1,.32.57.67.67,0,0,1-.32.57l-53.37,30.81A.68.68,0,0,1,180.83,413.22Zm-41.38-25.31,41.38,23.89,52-30.05L191.5,357.86Z" style="fill:#F65308"></path></g><polygon points="180.83 406.4 180.82 317.24 148.8 298.75 148.81 387.91 180.83 406.4" style="fill:#F65308"></polygon><polygon points="180.83 406.4 180.82 317.24 148.8 298.75 148.81 387.91 180.83 406.4" style="opacity:0.45"></polygon><polygon points="180.83 406.4 223.52 381.75 223.53 292.59 180.82 317.24 180.83 406.4" style="fill:#F65308"></polygon><polygon points="180.83 406.4 223.52 381.75 223.53 292.59 180.82 317.24 180.83 406.4" style="opacity:0.30000000000000004"></polygon><polygon points="223.53 292.59 191.51 274.1 148.8 298.75 180.82 317.24 223.53 292.59" style="fill:#F65308"></polygon><polygon points="223.53 292.59 191.51 274.1 148.8 298.75 180.82 317.24 223.53 292.59" style="opacity:0.15"></polygon><path d="M223.53,292.59l-42.71,24-14.43-8.05-17.59-9.8,17.28,10.34L180.24,318s-.05,85.4.59,88.43c.64-3,.62-88.41.62-88.41Z" style="fill:#fff;opacity:0.30000000000000004"></path></g></g><g id="freepik--Character--inject-242"><g id="freepik--character--inject-242"><g id="freepik--character--inject-242"><g id="freepik--character--inject-242"><path d="M241.46,221.67a4.86,4.86,0,0,1,3.28.58,15,15,0,0,1,2.55,5.33c.74,2.67,1.08,3.73,2.79,5a18.89,18.89,0,0,1,5.48,6,18.39,18.39,0,0,1,2.3,11.8c-.63,4.74-2.57,6.61-4.35,7.49a8.46,8.46,0,0,1-3.34.6Z" style="fill:#263238"></path><path d="M232.72,221.19l.95.87a14,14,0,0,1,1.58,1.39c2,2.18,1.65,7,1.52,8.32a3,3,0,0,0-2.36.66c-1.55,1.1-4.08,3.25-3.87,4.12s4.47,2.74,8.5,7.72a39.42,39.42,0,0,1,5.56,9.25c1.12,2.29,3.31,6,6.87,4.69,1.85-.64,5.8-4.91,4.75-12.88-1-7.46-4.88-10.21-7.52-12.14s-2.93-4-4.39-7.61c-.64-1.59-1.07-2.85-2.85-3.91-2.35-.68-4.69-.06-6.42-.24C233.63,221.28,233.12,220.45,232.72,221.19Z" style="fill:#37474f"></path><path d="M237.32,169.84a4.8,4.8,0,0,1-2.9,2.67c-8,2.65-18.33,6-28.1,10.17-12.12,5.19-15.7,8.25-18.64,13.51-1.79,3.22-1.56,7.66-.58,10.71s3.45,7.31,9.68,10.8c12.38,6.94,19.56,11.21,27.07,14.77,0,0,6.68-7.14,7.39-13.31l-10.91-9.95,25.76-12.14,33-29.93Z" style="fill:#455a64"></path><path d="M219.88,207.48a15.88,15.88,0,0,0-6.56,9.94c-.44,2.07-1.07,5.67-1.57,8.71,4.44,2.44,8.25,4.51,12.1,6.34,0,0,6.68-7.14,7.39-13.31l-10.91-9.95,1.5-.7Z" style="fill:#37474f"></path><path d="M246.09,197.07,239,175.16l-3.6,5.45a28.5,28.5,0,0,0,2.74,10.57s-12,9.21-13.42,10.09c-5.32,3.31-6,2.85-9,.7a12.11,12.11,0,0,0-11.05-1.72c7.44-.53,9.27,2.55,15.73,9l25.76-12.14Z" style="fill:#37474f"></path><path d="M212.09,281c0,2.39.88,5.94-.48,8.68a8,8,0,0,1-4.57,4A10.31,10.31,0,0,0,204.1,295c-1,.84-2,1.69-3,2.52a35.6,35.6,0,0,0-4.28,3.44c-3.49,3.73-9,4.89-14,4.53a18.07,18.07,0,0,1-7.09-1.79c-1.59-.78-3.51-2.29-3.5-4.23s1.53-2.72,3-3.78a41,41,0,0,1,6-3.35,31.06,31.06,0,0,0,6.07-3.8c1.94-1.7,7.38-5,10.69-12.13,1.51-3.26,6.51-17.84,6.51-17.84l17.69,5.3S212.1,278.6,212.09,281Z" style="fill:#ffbda7"></path><path d="M212.16,290.41a5.37,5.37,0,0,1-.69,3.58,16.46,16.46,0,0,1-5.88,2.68c-2.93.76-4.1,1.12-5.49,3a16.67,16.67,0,0,1-5.94,5.61A19.6,19.6,0,0,1,179,307.07c-4.67-1.19-6.24-3.72-6.59-4.42a5.31,5.31,0,0,1-.37-3.1Z" style="fill:#263238"></path><path d="M212.57,279.48a17.94,17.94,0,0,0-.68,1.86,4.19,4.19,0,0,1-1.63,2.07c-2.42,1.64-5.86,1.6-7.28,1.43a2.94,2.94,0,0,0-1.63-3.1c-2.81-1.41-5.48-2.32-6.39-1.94-2.1.88-.48,1.72-7,7.13a59,59,0,0,1-11,7.36c-2.44,1.36-5.79,3.62-4.74,6.36.67,2,5.23,6.31,13.66,5.57,7.78-.68,11.39-5.26,13.55-8.1s4.39-3.18,8.39-4.72c1.75-.67,3.13-1.06,4.33-3,.78-2.55.35-6,.58-7.92C212.93,281,213.36,279.94,212.57,279.48Z" style="fill:#37474f"></path><path d="M234.36,174.52l5-5L287,175.8c.08,4.75-.88,14.86-2.78,19.94-1.74,4.65-4,9.62-15,15.52S245,223.12,242.32,224.62c-3.85,2.18-3.75,2.27-4.66,9.08-.93,7-4.27,14.85-8.93,21.85-3.65,5.48-14,22.8-14,22.8-6.81,1.35-12.36-2.57-15.42-6.32,0,0,13.9-44,15.31-51.26.79-4.05,1.57-7.69,6.42-12.27,4.16-3.92,20.29-17.67,20.29-17.67S234.91,185.19,234.36,174.52Z" style="fill:#455a64"></path><path d="M278.88,179.87c.52,10.1.83,16.2-12.95,23.24-4.15,2.12-8.47,4.13-12.64,6.08-12.38,5.79-20.81,12.07-21.47,16.67-.25,1.75-.39,3.84-.56,6.27-.4,5.72-.73,10.46-5.44,19.52-3.29,6.3-10.14,19.29-13.57,24.56l1.26.13c3.34-5.35,9.66-17,13.28-24.06,4.83-9.4,5.2-14.3,5.6-20.08.17-2.39.32-4.47.56-6.18.57-4,9.72-10.61,20.82-15.8,4.18-1.95,8.51-4,12.68-6.1,14.44-7.37,14.09-14.11,13.56-24.3,0-1-.09-2-.13-3l-1.15-.22C278.77,177.72,278.82,178.82,278.88,179.87Z" style="fill:#37474f"></path><path d="M270.29,201.73c-.17-.13-4.24-3.18-2.35-10.53A42.16,42.16,0,0,0,269.27,174l1.13-.11A43.42,43.42,0,0,1,269,191.48c-1.69,6.61,1.88,9.3,1.92,9.32Z" style="fill:#37474f"></path><path d="M200.88,267c1.67,2.82,11.79,8.33,16.78,6.65l-2.91,5c-3.7,1.7-12-1.62-16-5.84Z" style="fill:#37474f"></path><g id="freepik--Top--inject-242"><g id="freepik--Arm--inject-242"><path id="freepik--arm--inject-242" d="M250.16,112.36c-8.36,0-13.28,3.63-13.28,10.63,0,6.07,2.27,25,2.27,25l-12.5,9.84,7.22,8.65s12.34-6.26,16.61-8.59c6.51-3.56,5.69-4.92,5.16-13.16S250.16,112.36,250.16,112.36Z" style="fill:#ebebeb"></path><path d="M229,156l4.28-3.36a12.8,12.8,0,0,1,4.86,5.45,13.27,13.27,0,0,1,1.23,5.61l-4.55,2.32S234.11,158.78,229,156Z" style="fill:#e0e0e0"></path></g><path id="freepik--Chest--inject-242" d="M262.45,112.34c7.06.48,10.16,1.87,18.64,3.65,2,1.85,5,9.68,5.94,19.5,1.17,12.8,1.24,17.74.9,33.38a117.34,117.34,0,0,1-1.27,16.36c-12.56,7.59-44.42,3.48-53.4-12.44,2.23-3.38,3.2-14,3.68-37.37.29-13.73,8-22.89,13.34-23.07C252.93,112.29,257.92,112,262.45,112.34Z" style="fill:#f5f5f5"></path><g id="freepik--Head--inject-242"><path d="M242.29,87.26a7.74,7.74,0,0,1-3.06-3.66,12.16,12.16,0,0,1-.87-5.3,6,6,0,0,1,.44-1.84,2.66,2.66,0,0,1,2-1c.49-.09,1-.16,1.47-.23A9.6,9.6,0,0,1,240,72.09a5,5,0,0,1-.24-2.87,1.46,1.46,0,0,1,.3-.71,1.66,1.66,0,0,1,1.66-.26,32.26,32.26,0,0,0,10.54.54c2.79-.23,4.18-.6,8-1.06s10.72,1.12,12.09,8.32c5.16.72,6,9,4.66,12.53-2.54,6.51-5,10.83-6.26,15.51-.27-.18-17.75-9.7-21.77-12.39l-4.52-3C243.69,88.18,243,87.74,242.29,87.26Z" style="fill:#263238"></path><path d="M275.58,99.19c-3,2.38-5,.24-5,.24l.5,14.71c-1.54,2.12-8.08,3.56-11.06,5.51-1.15.75-3,3.74-4.93,5.88-1.12-2.44-3.54-8.29-.18-12.34l-.08-2.81a25.26,25.26,0,0,1-4.7-.07,7.77,7.77,0,0,1-2.76-.93,8.41,8.41,0,0,1-3.88-4.9,41,41,0,0,1-1.77-11.15c-.15-4.54.13-10.42,1.54-13.5,2.64-2.48,10.72-3,17.57-1.22.18,1.69,0,3.18,1.46,5a7.26,7.26,0,0,0,2.66,2c.29,3.29.45,4.18,1.1,5.62.37.82,1.08,2.06,2.74,1.4.78-.31,1.31-2.08,2.1-3.27,1-1.6,4.49-2.44,6.27.9A7.45,7.45,0,0,1,275.58,99.19Z" style="fill:#ffbda7"></path><path d="M254.79,110.38c3.42-.45,9.5-1.94,11.2-4.09s2.93-7,2.93-7-.51,5.46-1.78,7.86-4.21,3.45-6.35,4.17a37.53,37.53,0,0,1-5.94,1.17Z" style="fill:#f0997a"></path><path d="M255.65,87.58l3.49-.78a1.88,1.88,0,0,0-2.2-1.39A1.75,1.75,0,0,0,255.65,87.58Z" style="fill:#263238"></path><path d="M247.19,86.11l-2.84,2.18a1.87,1.87,0,0,1,.35-2.57A1.74,1.74,0,0,1,247.19,86.11Z" style="fill:#263238"></path><path d="M256.54,100.2l-3.69,1.55a2.1,2.1,0,0,0,2.69,1.1A2,2,0,0,0,256.54,100.2Z" style="fill:#b16668"></path><path d="M256.45,101a2,2,0,0,0-1.89,2,2.07,2.07,0,0,0,1-.13,1.94,1.94,0,0,0,1.19-1.84Z" style="fill:#ffa8a7"></path><polygon points="253.05 88.5 252.3 99.26 246.68 97.1 253.05 88.5" style="fill:#f0997a"></polygon><path d="M258.83,90.67a1.47,1.47,0,1,1-1.53-1.39A1.47,1.47,0,0,1,258.83,90.67Z" style="fill:#263238"></path><path d="M247.85,91.06a1.46,1.46,0,0,1-1.47,1.46A1.48,1.48,0,0,1,244.92,91a1.46,1.46,0,0,1,1.48-1.45A1.45,1.45,0,0,1,247.85,91.06Z" style="fill:#263238"></path></g><g id="freepik--Laptop--inject-242"><path d="M267.56,191.89l0,.89a2.54,2.54,0,0,1-1.22,2.21l-23.75,14.36a2.55,2.55,0,0,1-1.25.36,2.49,2.49,0,0,1-1.27-.31l-44.66-24.52a2.54,2.54,0,0,1-1.31-2.16v-.61L241.32,208Z" style="fill:#ebebeb"></path><path d="M194.11,182.11l25.83-15.66a1.53,1.53,0,0,1,1.51,0l45.93,25.23a.33.33,0,0,1,0,.58L241.32,208Z" style="fill:#fafafa"></path><polygon points="241.51 205.81 255.45 197.37 213.69 174.44 199.68 182.83 241.51 205.81" style="fill:#e0e0e0"></polygon><polygon points="247.96 183.03 247.71 183.18 240.88 187.32 228.43 180.48 228.17 180.34 235.26 176.05 247.96 183.03" style="fill:#e0e0e0"></polygon><polygon points="247.71 183.18 240.88 187.32 228.43 180.48 235.26 176.34 247.71 183.18" style="fill:#e6e6e6"></polygon><path d="M241.32,208l0,1.68a2.49,2.49,0,0,1-1.27-.31l-44.66-24.52a2.54,2.54,0,0,1-1.31-2.16v-.61Z" style="fill:#ebebeb"></path><g style="opacity:0.5;mix-blend-mode:multiply"><path d="M241.32,208l0,1.68a2.49,2.49,0,0,1-1.27-.31l-44.66-24.52a2.54,2.54,0,0,1-1.31-2.16v-.61Z" style="fill:#e0e0e0"></path></g><path d="M229.37,155.74a27.41,27.41,0,0,1-7.89,4.64c-5.41,1.94-6.53,1.9-10.77,5.15a37,37,0,0,0-4.11,3.9c-1.23,2.18-3,4-4.35,6.13-1.12,1.24.27,1.6,1.36,1.42,3-.64,4.79-3.52,7.21-5.11a10.4,10.4,0,0,0,.22,3c.18.81.23,1.82,1.06,2.24a6.27,6.27,0,0,0,1.83.31,1.26,1.26,0,0,0,.51.7,2.12,2.12,0,0,0,1.51,0,6.49,6.49,0,0,0,.78-.31,1.52,1.52,0,0,0,1.17.95,6.73,6.73,0,0,0,3.44-.66c.15-.11,1.26-1.09,1.59-1.37s.92-.67,1.07-1.07-.81-1.27-1.49-1.22a6.53,6.53,0,0,0-2.14.64,7.92,7.92,0,0,0,.21-2c.37-1.08,4.88-.52,8.52-2,2.75-1.16,3.48-3.93,4.77-4.59l1.15-.58C235,160.93,232.64,157.35,229.37,155.74Z" style="fill:#ffbda7"></path><path d="M240.62,208.42a3,3,0,0,1-2.58-.14l-44.46-24.42a3,3,0,0,1-1.5-2.06l-5.42-28.57a2.63,2.63,0,0,1,0-.49,2.94,2.94,0,0,1,.84-2.14L233.65,176a2.22,2.22,0,0,1,1.11,1.52Z" style="fill:#F65308"></path><g style="opacity:0.7000000000000001"><path d="M240.62,208.42a3,3,0,0,1-2.58-.14l-44.46-24.42a3,3,0,0,1-1.5-2.06l-5.42-28.57a2.63,2.63,0,0,1,0-.49,2.94,2.94,0,0,1,.84-2.14L233.65,176a2.22,2.22,0,0,1,1.11,1.52Z" style="fill:#fff"></path></g><path d="M241.32,208l-.3.18a3,3,0,0,1-.4.21l-5.86-30.92a2.22,2.22,0,0,0-1.11-1.52l-46.2-25.38a2.88,2.88,0,0,1,.6-.48l46.29,25.43a2.19,2.19,0,0,1,1.11,1.52Z" style="fill:#fafafa"></path><path d="M215.32,182.48c-.37-1.91-2.4-4.42-4.55-5.6s-3.6-.59-3.24,1.33,2.4,4.42,4.55,5.6S215.68,184.39,215.32,182.48Z" style="fill:#F65308"></path></g><g id="freepik--arm--inject-242"><path d="M303.1,156.38c-2.61-11.08-7.24-23.68-10.2-31.94-1.58-4.38-4-6.21-10.92-8-4.84,7.13-3.53,18.28-1.78,22.4l6.65,18.7s-6.05,5.57-11.75,9.81c-4.82,3.57-7.3,5.64-13,5.6-6.64,0-7.57.21-10.54,1.53-1.58.69-5.66,3-7.25,3.87-1.21.65-3.43,3-5.47,4.5s.47,2.21,2,1.76a22.55,22.55,0,0,0,4.89-2.29,26.48,26.48,0,0,1,3.84-1.49,23.07,23.07,0,0,0-.79,4.5c0,.82-.17,1.81.54,2.41a6.35,6.35,0,0,0,1.73.7,1.2,1.2,0,0,0,.34.79,2,2,0,0,0,1.46.37,6.15,6.15,0,0,0,.84-.13,1.5,1.5,0,0,0,.93,1.18,6.6,6.6,0,0,0,3.5.1c.17-.07,1.47-.78,1.85-1a3.41,3.41,0,0,0,1.28-.82c.29-.42-.52-1.41-1.19-1.51a6.7,6.7,0,0,0-2.23.16,7.68,7.68,0,0,0,.64-1.93c.61-1,5,0,8.88-.7,2.94-.53,5.05-3.33,6.37-3.93,8.44-3.86,14.89-6.57,23.4-11.77C304.85,164.5,304.51,162.34,303.1,156.38Z" style="fill:#ffbda7"></path><path d="M248.77,181.07c.44-1.12,1.13-2.44,2-2.75a10.26,10.26,0,0,0-1.22,2.48Z" style="fill:#f0997a"></path><path d="M251,188.41a8.9,8.9,0,0,1-.09-2.42,21.26,21.26,0,0,1,.3-2.4,10.24,10.24,0,0,1,.64-2.35,4.4,4.4,0,0,1,1.44-2,3.59,3.59,0,0,0-.66,1,7.36,7.36,0,0,0-.45,1.09,19.37,19.37,0,0,0-.52,2.31c-.14.79-.27,1.57-.4,2.36A19,19,0,0,0,251,188.41Z" style="fill:#f0997a"></path><path d="M253.64,189.44a11.14,11.14,0,0,1,0-2.38,18.76,18.76,0,0,1,.35-2.35,15.35,15.35,0,0,1,.63-2.3,4.52,4.52,0,0,1,1.21-2,2.89,2.89,0,0,0-.53,1c-.13.37-.24.74-.34,1.12-.19.75-.37,1.52-.52,2.28C254.11,186.34,253.81,187.87,253.64,189.44Z" style="fill:#f0997a"></path><path d="M260,187.41a4.13,4.13,0,0,0-1,.14c-.32.08-.54.24-.94.37l.16-.26a1,1,0,0,1-.06.47,1.21,1.21,0,0,1-.22.37,1.34,1.34,0,0,1-.67.44,3.54,3.54,0,0,0,.4-.61,1.21,1.21,0,0,0,.09-.31.92.92,0,0,0,0-.27l0-.18.19-.08a2.56,2.56,0,0,1,.92-.2A2,2,0,0,1,260,187.41Z" style="fill:#f0997a"></path><path d="M281.09,116c2.61.42,7.8.89,10.57,4.94s4.28,9.23,6.51,16.07,5.68,18.43,6.43,22.09,0,5.71-3.3,8-13,7.9-17.8,9.45a14.64,14.64,0,0,0-3.3-7.15,15.1,15.1,0,0,0-3.67-3.21l9.9-8.72s-6.38-18.27-7.48-21S276.42,123.06,281.09,116Z" style="fill:#ebebeb"></path><path d="M277.84,165.08l-4.65,3.65a15.65,15.65,0,0,1,4.44,4.49,11.83,11.83,0,0,1,2,5.1l6-2.52S284.82,166.72,277.84,165.08Z" style="fill:#e0e0e0"></path></g><g id="freepik--Tie--inject-242"><path d="M255.05,125.53a43.33,43.33,0,0,0,3.68-6.5c1-2,4.38-2.43,7.86-4.61a12.26,12.26,0,0,0,4.31-4.31l-.08-2.26c1.22,0,1.24,1,1.78,2.25s2.37,4.15,3.81,4.55c-1.54,4.33-6.81,9.43-12.51,11.79-2-4.53-4.12-5.86-4.79-5C257.49,123.39,256.64,124.61,255.05,125.53Z" style="fill:#e6e6e6"></path><path d="M255.05,125.53c-.77-1.84-.59-4.85-1.08-7.72-.18-1.1.9-4.62.9-4.62l-.08-2.81-1.68.08a7.36,7.36,0,0,1-1.51,1.85c-2.12,1.87-3.74,8.18-3,10.72.68-2.34,2.48-4,3.53-3.56S253.64,124.11,255.05,125.53Z" style="fill:#e6e6e6"></path><path d="M256.26,130c0,5.75.66,20.78,1.17,25,.4,3.35-4.37,10.8-5.8,11-.87.13-4.94-6.56-5.13-11.32-.17-4.33,3.48-18.89,6.2-25.49A1.87,1.87,0,0,1,256.26,130Z" style="fill:#F65308"></path><path d="M253.06,123.8c-1-1.29-.68-4.15-.68-4.15-.55-.65-1.88,0-2.75,1.27,0,0,.38,4,2.75,5.85Z" style="fill:#F65308"></path><path d="M252.38,126.77l.68-3a2.91,2.91,0,0,1-.2-.35h0A2.88,2.88,0,0,0,251.6,126,5.17,5.17,0,0,0,252.38,126.77Z" style="opacity:0.15"></path><path d="M252.38,119.65c-.55-.65-1.88,0-2.75,1.27a10.77,10.77,0,0,0,.29,1.55c.41-1.13,1.38-2.26,2-2.11a1.33,1.33,0,0,1,.46.23C252.34,120,252.38,119.65,252.38,119.65Z" style="opacity:0.15"></path><path d="M257.18,124.81c1.54-.76,3.23-3.35,3.23-3.35a9.55,9.55,0,0,1,2.58,3.17,13.17,13.17,0,0,1-5.19,2.44Z" style="fill:#F65308"></path><path d="M260.41,121.46,260,122a9.35,9.35,0,0,1,2.25,3.16,7.7,7.7,0,0,0,.7-.52A9.55,9.55,0,0,0,260.41,121.46Z" style="opacity:0.15"></path><path d="M255.13,123.64c-2.33-.45-2.59.74-3,1.89-.28.72-.08,3.05.6,3.71a3.76,3.76,0,0,1,3.56.75c.9-.9,1.81-2.5,1.66-3.48A3.36,3.36,0,0,0,255.13,123.64Z" style="fill:#F65308"></path><path d="M256.26,130c.9-.9,1.81-2.5,1.66-3.48a3.42,3.42,0,0,0-1.42-2.31,3.48,3.48,0,0,1,.25,3.59c-.65.83-.95.69-1.89.58s-2.16.49-2.16.87A3.76,3.76,0,0,1,256.26,130Z" style="opacity:0.15"></path></g></g></g></g></g></g></svg>
